<svg width="120" height="137" xmlns="http://www.w3.org/2000/svg" xmlns:xlink="http://www.w3.org/1999/xlink" xml:space="preserve" overflow="hidden"><defs><clipPath id="clip0"><rect x="230" y="291" width="120" height="137"/></clipPath></defs><g clip-path="url(#clip0)" transform="translate(-230 -291)"><path d="M280 357 300 357 300 428 280 428Z" fill="#00594F"/><path d="M290 291C293.866 291 297 293.737 297 297.113L294.118 328.404C294.118 330.39 292.274 332 290 332 287.726 332 285.882 330.39 285.882 328.404L283 297.113C283 293.737 286.134 291 290 291Z" fill="#8BC53F" fill-rule="evenodd"/><path d="M326.261 302.009C329.364 304.296 330.254 308.355 328.25 311.074L307.36 334.571C306.181 336.171 303.745 336.377 301.92 335.031 300.095 333.686 299.571 331.298 300.75 329.699L317.013 302.792C319.018 300.072 323.158 299.722 326.261 302.009Z" fill="#8BC53F" fill-rule="evenodd"/><path d="M6.97974 41.0237C3.12492 41.0237 0 38.2851 0 34.9067L2.87401 3.59823C2.87401 1.61101 4.71223 0 6.97974 0 9.24724 0 11.0855 1.61101 11.0855 3.59823L13.9595 34.9067C13.9595 38.2851 10.8346 41.0237 6.97974 41.0237Z" fill="#8BC53F" fill-rule="evenodd" transform="matrix(0.804954 -0.593337 -0.593337 -0.804954 271.495 339.173)"/><path d="M348.629 328.6C350.102 332.163 348.765 336.097 345.643 337.388L315.613 346.697C313.776 347.457 311.585 346.374 310.719 344.278 309.852 342.183 310.638 339.868 312.475 339.109L340.308 324.488C343.43 323.197 347.155 325.038 348.629 328.6Z" fill="#8BC53F" fill-rule="evenodd"/><path d="M335 376 244 376C238.477 376 234 371.523 234 366L234 356 345 356 345 366C345 371.523 340.523 376 335 376Z" fill="#00594F" fill-rule="evenodd"/><path d="M6.97974 41.0237C3.12492 41.0237 0 38.2851 0 34.9067L2.87401 3.59823C2.87401 1.61101 4.71224 0 6.97974 0 9.24724 0 11.0855 1.61101 11.0855 3.59823L13.9595 34.9067C13.9595 38.2851 10.8346 41.0237 6.97974 41.0237Z" fill="#8BC53F" fill-rule="evenodd" transform="matrix(0.382162 -0.924095 -0.924095 -0.382162 266.062 350.728)"/></g></svg>